<?xml version="1.0" encoding="UTF-8"?>
<svg version="1.1" xmlns="http://www.w3.org/2000/svg" width="951" height="591">
<path d="M0 0 C313.83 0 627.66 0 951 0 C951 195.03 951 390.06 951 591 C637.17 591 323.34 591 0 591 C0 395.97 0 200.94 0 0 Z " fill="#000000" transform="translate(0,0)"/>
<path d="M0 0 C2.16590548 0.90684364 4.09841273 2.02501982 6.10205078 3.24926758 C10.11849267 5.55672675 13.1897406 6.45566267 17.78955078 6.74926758 C18.11955078 6.08926758 18.44955078 5.42926758 18.78955078 4.74926758 C17.46955078 4.08926758 16.14955078 3.42926758 14.78955078 2.74926758 C14.78955078 2.08926758 14.78955078 1.42926758 14.78955078 0.74926758 C21.24447677 0.54448013 27.69855013 0.40553009 34.15600586 0.30981445 C36.34707944 0.26986839 38.53794371 0.21548981 40.72827148 0.14575195 C54.69173984 -0.28732255 63.53180216 -0.08392154 74.78955078 8.74926758 C76.61788239 9.81991221 78.469571 10.85184287 80.34423828 11.83911133 C81.67600098 12.55623291 81.67600098 12.55623291 83.03466797 13.2878418 C84.94882002 14.30327198 86.86640092 15.31225424 88.78662109 16.31616211 C91.85505083 17.93812997 94.88462563 19.61914831 97.91455078 21.31176758 C98.95353516 21.84350586 99.99251953 22.37524414 101.06298828 22.9230957 C108.16315158 26.97966806 108.16315158 26.97966806 109.66723633 31.22875977 C109.92248953 34.01716162 109.94371875 36.72456853 109.84191895 39.52133179 C109.75761982 43.10772919 109.90681781 46.68570954 110.01506042 50.27064514 C110.1735347 55.80426256 110.25668547 61.33926699 110.35205078 66.87426758 C110.39490656 69.21183326 110.43779403 71.54939836 110.48071289 73.88696289 C110.75867735 89.50868839 110.93951801 105.12498909 110.78955078 120.74926758 C109.86142578 121.15145508 109.86142578 121.15145508 108.91455078 121.56176758 C106.49002748 122.70483606 106.49002748 122.70483606 104.78955078 125.74926758 C105.10172718 128.39559045 105.10172718 128.39559045 105.78955078 130.74926758 C106.48822266 130.31614258 107.18689453 129.88301758 107.90673828 129.43676758 C108.81681641 128.87989258 109.72689453 128.32301758 110.66455078 127.74926758 C111.56947266 127.19239258 112.47439453 126.63551758 113.40673828 126.06176758 C115.78955078 124.74926758 115.78955078 124.74926758 117.78955078 124.74926758 C117.76449463 124.09734436 117.73943848 123.44542114 117.71362305 122.77374268 C117.44771797 115.82750002 117.1894268 108.88100063 116.93505859 101.93432617 C116.83990451 99.36101487 116.7429727 96.78776853 116.64404297 94.21459961 C115.94713985 76.04533976 115.65151843 57.93078229 115.78955078 39.74926758 C118.73904683 42.60902978 120.7297248 45.12525001 122.61767578 48.78442383 C125.74394021 54.6997487 129.10999169 60.4432416 132.53955078 66.18676758 C133.68142545 68.10138741 134.82210049 70.01672335 135.96142578 71.93286133 C136.70537598 73.17894165 136.70537598 73.17894165 137.46435547 74.45019531 C138.12032715 75.58823608 138.12032715 75.58823608 138.78955078 76.74926758 C139.16934082 77.35859131 139.54913086 77.96791504 139.94042969 78.59570312 C141.18244579 81.7457388 141.12231606 84.64532656 141.20361328 88.02270508 C141.2336142 89.09111382 141.2336142 89.09111382 141.26422119 90.18110657 C141.32591835 92.49539329 141.37250773 94.80954397 141.41455078 97.12426758 C141.42891174 97.91016266 141.44327271 98.69605774 141.45806885 99.50576782 C141.47222839 100.29486542 141.48638794 101.08396301 141.50097656 101.89697266 C141.5152066 102.68547104 141.52943665 103.47396942 141.5440979 104.28636169 C141.57229215 105.87224235 141.59896716 107.45815075 141.62411499 109.04408264 C141.70719575 113.60637677 141.93119692 118.12520012 142.30517578 122.67504883 C143.26013633 136.01945196 143.26013633 136.01945196 139.41845703 140.53833008 C136.58873867 142.33244772 133.84122897 143.69344708 130.72753906 144.91870117 C127.33004959 146.37476809 124.28744266 148.41225593 121.16455078 150.37426758 C116.98851022 152.89751189 112.78376363 155.3291128 108.47705078 157.62426758 C103.66193242 160.20937537 99.00731406 163.01526345 94.35205078 165.87426758 C93.59730469 166.33591309 92.84255859 166.79755859 92.06494141 167.27319336 C87.81344867 169.87771941 83.58016307 172.50855268 79.35986328 175.16333008 C77.56580955 176.27565949 75.77154352 177.38764656 73.97705078 178.49926758 C73.13537354 179.03696777 72.29369629 179.57466797 71.42651367 180.12866211 C70.63237061 180.61705566 69.83822754 181.10544922 69.02001953 181.60864258 C68.32287842 182.04660156 67.6257373 182.48456055 66.9074707 182.93579102 C64.16235117 183.99017007 62.57213075 183.57401399 59.78955078 182.74926758 C57.94580078 181.74145508 57.94580078 181.74145508 56.28955078 180.62426758 C53.02791717 178.49403578 53.02791717 178.49403578 49.91455078 178.87426758 C47.61623364 179.54858457 47.61623364 179.54858457 46.78955078 181.74926758 C47.51142578 182.01481445 48.23330078 182.28036133 48.97705078 182.55395508 C52.69733105 184.13507419 55.91273669 186.30159837 59.28955078 188.50708008 C62.20544842 189.95591672 63.57672803 190.2654418 66.78955078 189.74926758 C69.12094817 188.56007873 71.2261028 187.34740786 73.41455078 185.93676758 C74.74155117 185.10944018 76.06973626 184.2840108 77.39892578 183.46020508 C78.1046875 183.0203125 78.81044922 182.58041992 79.53759766 182.12719727 C84.29319604 179.21733199 89.1565606 176.48753564 94.00292969 173.73242188 C98.72915723 171.0209425 103.27088572 168.12391783 107.78466797 165.07275391 C110.11109369 163.53700697 112.49829708 162.2105154 114.97705078 160.93676758 C120.25524595 158.13319366 125.22783823 154.95942176 130.19458008 151.64453125 C134.58252959 148.74926758 134.58252959 148.74926758 136.78955078 148.74926758 C134.97333796 153.85345188 132.28944992 158.46736404 129.66455078 163.18676758 C129.17390137 164.07114502 128.68325195 164.95552246 128.17773438 165.86669922 C127.18463287 167.65392575 126.19001952 169.4403131 125.19384766 171.22583008 C123.94018409 173.47858853 122.69884014 175.7375612 121.46142578 177.99926758 C120.77974711 179.22877431 120.09749946 180.45796584 119.41455078 181.68676758 C118.82931641 182.74766602 118.24408203 183.80856445 117.64111328 184.90161133 C114.36358779 189.94236256 110.56469538 193.14818121 105.35205078 196.06176758 C104.29373047 196.66118164 103.23541016 197.2605957 102.14501953 197.87817383 C100.4840625 198.80436523 100.4840625 198.80436523 98.78955078 199.74926758 C96.57935727 200.99597554 94.37107843 202.24608289 92.16455078 203.49926758 C91.59760498 203.81863281 91.03065918 204.13799805 90.4465332 204.46704102 C86.91958254 206.47139659 83.46648605 208.56619541 80.03955078 210.73754883 C78.8264624 211.50083496 78.8264624 211.50083496 77.58886719 212.27954102 C75.99578394 213.28640813 74.40924509 214.30371946 72.83007812 215.33227539 C71.73880615 216.02015137 71.73880615 216.02015137 70.62548828 216.72192383 C69.6594165 217.34466187 69.6594165 217.34466187 68.67382812 217.97998047 C66.22860522 218.9782828 65.2392449 218.67696931 62.78955078 217.74926758 C61.24928325 217.00551882 59.73208605 216.21297499 58.23486328 215.38598633 C57.37248047 214.9109668 56.51009766 214.43594727 55.62158203 213.9465332 C54.72826172 213.44831055 53.83494141 212.95008789 52.91455078 212.43676758 C52.02896484 211.95014648 51.14337891 211.46352539 50.23095703 210.9621582 C45.60836741 208.40285561 41.12936146 205.76421856 36.78955078 202.74926758 C34.27871964 204.00468315 33.91829632 205.24990246 32.78955078 207.74926758 C33.83175781 208.13405273 33.83175781 208.13405273 34.89501953 208.52661133 C38.13095671 209.89347818 41.07033239 211.53863802 44.10205078 213.31176758 C45.17068359 213.93180664 46.23931641 214.5518457 47.34033203 215.19067383 C48.14857422 215.70500977 48.95681641 216.2193457 49.78955078 216.74926758 C49.78955078 217.07926758 49.78955078 217.40926758 49.78955078 217.74926758 C43.29775557 217.90251993 36.80643362 218.00693981 30.31323242 218.07885742 C28.10862802 218.10886521 25.90414133 218.14968553 23.69995117 218.2019043 C1.09060789 218.72377644 1.09060789 218.72377644 -8.21044922 211.74926758 C-9.84881958 210.82052745 -11.50149519 209.9165719 -13.16748047 209.03833008 C-39.11178943 194.81504077 -39.11178943 194.81504077 -45.21044922 190.74926758 C-45.60244751 188.47698975 -45.60244751 188.47698975 -45.62695312 185.60375977 C-45.65180283 183.99002472 -45.65180283 183.99002472 -45.67715454 182.34368896 C-45.68203384 180.5876535 -45.68203384 180.5876535 -45.68701172 178.79614258 C-45.70259125 177.58919739 -45.71817078 176.3822522 -45.73422241 175.13873291 C-45.78189097 171.25891879 -45.80949916 167.37928259 -45.83544922 163.49926758 C-45.87216727 159.66223141 -45.91314115 155.82529063 -45.95809937 151.98834229 C-45.98489095 149.59968608 -46.00642315 147.2109626 -46.02163696 144.82220459 C-46.09589149 136.76409472 -46.57237967 128.78090041 -47.21044922 120.74926758 C-47.48689363 116.91475599 -47.6986278 113.09121292 -47.83544922 109.24926758 C-47.90634766 108.3134082 -47.97724609 107.37754883 -48.05029297 106.41333008 C-48.12622058 103.59201995 -48.07320774 101.44047468 -47.21044922 98.74926758 C-44.52440594 96.07891421 -41.57219333 94.44426762 -38.21044922 92.74926758 C-36.0989111 91.5015527 -34.18393337 90.21673015 -32.21044922 88.74926758 C-32.21044922 87.75926758 -32.21044922 86.76926758 -32.21044922 85.74926758 C-31.55044922 85.74926758 -30.89044922 85.74926758 -30.21044922 85.74926758 C-30.54044922 84.75926758 -30.87044922 83.76926758 -31.21044922 82.74926758 C-36.56850968 84.63547068 -41.15042632 87.6665603 -45.94677734 90.64770508 C-51.00695642 93.74926758 -51.00695642 93.74926758 -53.21044922 93.74926758 C-52.55044922 122.12926758 -51.89044922 150.50926758 -51.21044922 179.74926758 C-51.87044922 179.74926758 -52.53044922 179.74926758 -53.21044922 179.74926758 C-53.50435547 179.18723633 -53.79826172 178.62520508 -54.10107422 178.04614258 C-58.52125026 169.76466333 -63.35945708 161.74826922 -68.21044922 153.71411133 C-68.67121857 152.93560318 -69.13198792 152.15709503 -69.60671997 151.35499573 C-71.14671888 148.77896881 -71.14671888 148.77896881 -72.7953186 146.56498718 C-77.75412434 139.41388005 -78.00960029 133.39659273 -77.79638672 124.86645508 C-77.78789703 123.5710379 -77.77940735 122.27562073 -77.7706604 120.94094849 C-77.74797311 117.53071999 -77.68923462 114.1220749 -77.62243652 110.71246338 C-77.56057145 107.21974091 -77.5335522 103.7267574 -77.50341797 100.23364258 C-77.43946306 93.40487546 -77.33733725 86.57714795 -77.21044922 79.74926758 C-74.24044922 78.09926758 -71.27044922 76.44926758 -68.21044922 74.74926758 C-68.21044922 73.75926758 -68.21044922 72.76926758 -68.21044922 71.74926758 C-69.53044922 71.41926758 -70.85044922 71.08926758 -72.21044922 70.74926758 C-72.47289204 66.78419391 -71.87999486 64.56601483 -69.86669922 61.15942383 C-69.36614014 60.29905518 -68.86558105 59.43868652 -68.34985352 58.55224609 C-67.8088501 57.64788818 -67.26784668 56.74353027 -66.71044922 55.81176758 C-65.60191421 53.92662256 -64.49384229 52.04120516 -63.38623047 50.15551758 C-62.8417627 49.23512695 -62.29729492 48.31473633 -61.73632812 47.36645508 C-60.40722363 45.08677505 -59.1271762 42.79232819 -57.87841797 40.46801758 C-57.53810547 39.84145264 -57.19779297 39.2148877 -56.84716797 38.56933594 C-55.96526448 36.93640816 -55.09329856 35.29812404 -54.22216797 33.65942383 C-50.04754 27.6203989 -44.20169051 23.87543061 -37.89794922 20.31176758 C-36.41867197 19.46300194 -34.93951384 18.61402869 -33.46044922 17.76489258 C-32.64189453 17.29760742 -31.82333984 16.83032227 -30.97998047 16.34887695 C-28.38110303 14.84783279 -25.79889526 13.32097741 -23.22160339 11.78321838 C-20.87108689 10.38240675 -18.51448815 8.99202121 -16.15713501 7.60275269 C-14.98722092 6.91046472 -13.81969403 6.21412612 -12.65463257 5.51370239 C-11.00695908 4.5246511 -9.34910202 3.55262576 -7.69091797 2.58129883 C-6.73080811 2.0112915 -5.77069824 1.44128418 -4.78149414 0.85400391 C-2.21044922 -0.25073242 -2.21044922 -0.25073242 0 0 Z " fill="#020202" transform="translate(439.21044921875,68.250732421875)"/>
<path d="M0 0 C6.08436126 4.83958894 8.59874205 10.49083947 10 18 C11.12774766 28.34350604 11.27684828 38.77396074 11.35009766 49.16943359 C11.36676964 50.8971086 11.39420459 52.6247116 11.43212891 54.35205078 C11.8628824 74.21540534 11.8628824 74.21540534 4.62719727 82.58862305 C-1.35745274 88.19574384 -8.72617858 89.4646737 -16.55859375 89.43359375 C-17.34718277 89.4388356 -18.13577179 89.44407745 -18.94825745 89.44947815 C-20.60457185 89.45585856 -22.2609318 89.45461341 -23.91723633 89.44604492 C-26.42807988 89.43753194 -28.93664579 89.46635395 -31.44726562 89.49804688 C-42.1581449 89.54444746 -50.91246014 88.84967104 -59 81 C-64.23932223 73.62613909 -64.39713046 66.12219189 -64.625 57.375 C-64.66077148 56.15401611 -64.69654297 54.93303223 -64.73339844 53.67504883 C-64.83786801 49.78355741 -64.92199414 45.89210712 -65 42 C-65.02868164 40.70143066 -65.05736328 39.40286133 -65.08691406 38.06494141 C-65.16214558 34.27241607 -65.21129019 30.48055886 -65.25 26.6875 C-65.27143066 25.5207373 -65.29286133 24.35397461 -65.31494141 23.15185547 C-65.34656291 15.17035456 -64.37050922 10.45417058 -59.8125 3.8125 C-46.88251052 -9.11748948 -14.74813824 -9.72951014 0 0 Z " fill="#F8F8F7" transform="translate(317,350)"/>
<path d="M0 0 C3.10375703 1.16049566 4.54420438 0.99257017 7.6640625 -0.00390625 C8.6540625 -0.49890625 9.6440625 -0.99390625 10.6640625 -1.50390625 C19.47663137 -5.91019068 33.56829248 -5.82801935 42.97753906 -3.40917969 C49.99327863 -0.84325323 55.26543534 2.88223069 59.6640625 8.99609375 C61.43323501 13.38203006 61.95403178 17.19061979 62.078125 21.90234375 C62.09767242 22.56826538 62.11721985 23.23418701 62.13735962 23.92028809 C62.19820821 26.11209798 62.24457794 28.30389455 62.2890625 30.49609375 C62.32512462 32.03255374 62.36125874 33.56901205 62.39746094 35.10546875 C62.5076192 40.06871027 62.58785053 45.03223204 62.6640625 49.99609375 C62.6784436 50.86814453 62.69282471 51.74019531 62.7076416 52.63867188 C62.7932234 57.91147515 62.85776202 63.1838968 62.89422607 68.45727539 C62.90742527 70.1466095 62.92535171 71.83591343 62.94805908 73.52514648 C62.97770681 75.89064912 62.98767824 78.25542706 62.9921875 80.62109375 C63.00448395 81.32576782 63.0167804 82.03044189 63.02944946 82.75646973 C63.00774743 87.52854757 63.00774743 87.52854757 61.26855469 89.89453125 C57.68939817 92.35179756 54.98455178 92.36854972 50.6640625 91.99609375 C47.66787235 89.80956879 46.76899825 88.5697081 46.09606934 84.89125061 C46.04754822 83.0618821 46.04754822 83.0618821 45.99804688 81.19555664 C45.97462723 80.52025406 45.95120758 79.84495148 45.92707825 79.14918518 C45.87881163 77.68714142 45.83937953 76.22478493 45.80781555 74.76228523 C45.75729772 72.44513792 45.68276081 70.12985884 45.60192871 67.81358337 C45.43458568 62.89579421 45.29721732 57.97741172 45.1640625 53.05859375 C45.00969986 47.36079211 44.84299418 41.66391128 44.6443634 35.96746635 C44.57137145 33.68930113 44.52128548 31.41136778 44.4720459 29.13258362 C44.42584526 27.73036013 44.37857901 26.3281712 44.33007812 24.92602539 C44.28155701 23.09546349 44.28155701 23.09546349 44.23205566 21.22792053 C43.56381045 17.42566917 42.33913359 15.73023599 39.6640625 12.99609375 C36.28554521 11.3068351 32.50119604 11.76933089 28.7890625 11.74609375 C27.97308594 11.72546875 27.15710938 11.70484375 26.31640625 11.68359375 C22.85823585 11.6610282 20.35227289 11.65748544 17.21875 13.19921875 C13.65570953 17.31730573 13.42931679 21.45975876 13.51635742 26.74243164 C13.52796654 27.72875328 13.52796654 27.72875328 13.53981018 28.73500061 C13.55739547 30.15532854 13.57941818 31.57560711 13.6054287 32.99580574 C13.64498692 35.24465427 13.66926518 37.49318975 13.68904114 39.74229431 C13.74697046 46.13398225 13.82445262 52.5251979 13.93139648 58.91625977 C13.99583935 62.83178453 14.03589104 66.74693298 14.06057167 70.66290092 C14.07482525 72.15294615 14.09842674 73.64293259 14.13158226 75.13267708 C14.17730913 77.21531289 14.19206589 79.2960762 14.19995117 81.37915039 C14.21708664 82.56319962 14.23422211 83.74724884 14.25187683 84.96717834 C13.6640625 87.99609375 13.6640625 87.99609375 11.32197571 90.38621521 C8.10359094 92.33556726 6.36921133 92.46909147 2.6640625 91.99609375 C-1.0359375 90.59609375 -1.0359375 90.59609375 -2.3359375 87.99609375 C-2.47009169 85.90466546 -2.54191739 83.80914154 -2.58544922 81.71386719 C-2.60028351 81.06972366 -2.6151178 80.42558014 -2.63040161 79.76191711 C-2.66232848 78.36128707 -2.6922306 76.96060976 -2.72036362 75.55989838 C-2.76594279 73.33999075 -2.81894661 71.12038002 -2.8742981 68.9006958 C-3.0311104 62.58882243 -3.18054332 56.27685256 -3.31005859 49.96435547 C-3.38980131 46.10376762 -3.48344469 42.24372404 -3.58588028 38.38367462 C-3.62216617 36.91506068 -3.65324155 35.44630809 -3.67892075 33.9774704 C-3.71541 31.916396 -3.76960341 29.85646343 -3.82763672 27.79589844 C-3.85348846 26.62500671 -3.87934021 25.45411499 -3.90597534 24.2477417 C-4.3841057 20.63181512 -5.60496264 18.17927992 -7.3359375 14.99609375 C-7.3359375 14.33609375 -7.3359375 13.67609375 -7.3359375 12.99609375 C-11.47247922 11.61724651 -15.37677661 11.69267899 -19.7109375 11.62109375 C-20.56171875 11.58371094 -21.4125 11.54632813 -22.2890625 11.5078125 C-23.11664062 11.49621094 -23.94421875 11.48460937 -24.796875 11.47265625 C-25.92295166 11.44292725 -25.92295166 11.44292725 -27.07177734 11.41259766 C-30.58844484 12.31887707 -32.05567304 14.22696514 -34.3359375 16.99609375 C-35.0288491 20.32867395 -35.0288491 20.32867395 -34.84008789 24.01782227 C-34.83154533 25.04803497 -34.83154533 25.04803497 -34.8228302 26.09906006 C-34.8072064 27.58333156 -34.7799701 29.06751718 -34.74232674 30.55139351 C-34.68292951 32.90127872 -34.65430157 35.24980361 -34.63340759 37.60032654 C-34.58318817 42.58701613 -34.49203198 47.57256074 -34.3984375 52.55859375 C-34.29442015 58.34106985 -34.20717818 64.12320604 -34.15112114 69.9063549 C-34.12147485 72.22025488 -34.06691669 74.5326913 -34.01100159 76.84608459 C-33.99327422 78.2652961 -33.97661041 79.68452141 -33.96118164 81.10375977 C-33.92523643 82.95977562 -33.92523643 82.95977562 -33.88856506 84.85328674 C-34.4216038 88.59790252 -35.36019381 89.7417841 -38.3359375 91.99609375 C-40.5546875 92.52734375 -40.5546875 92.52734375 -42.8359375 92.49609375 C-43.58875 92.50640625 -44.3415625 92.51671875 -45.1171875 92.52734375 C-48.26312289 91.77409161 -49.34138983 90.532861 -51.3359375 87.99609375 C-51.88183594 84.73266602 -51.88183594 84.73266602 -51.9453125 80.8125 C-51.96203003 80.0967128 -51.97874756 79.3809256 -51.99597168 78.64344788 C-52.04567194 76.28172114 -52.06662073 73.92074994 -52.0859375 71.55859375 C-52.11176346 69.91257852 -52.13879922 68.26658186 -52.16699219 66.62060547 C-52.23494377 62.29425065 -52.27538078 57.96802475 -52.31054688 53.64129639 C-52.3358212 51.00820955 -52.37284417 48.37555807 -52.4140625 45.74267578 C-52.48025878 41.51055483 -52.52950812 37.27860836 -52.56408691 33.04611206 C-52.57855978 31.43988643 -52.59730211 29.83369313 -52.6204834 28.22756958 C-52.65027047 25.97573181 -52.65985596 23.72466898 -52.6640625 21.47265625 C-52.6734082 20.19471191 -52.68275391 18.91676758 -52.69238281 17.60009766 C-52.11363283 11.74838038 -50.17990181 7.10502377 -45.5859375 3.24609375 C-33.19539661 -6.89368834 -13.93953768 -6.78586993 0 0 Z " fill="#F8F8F8" transform="translate(730.3359375,349.00390625)"/>
<path d="M0 0 C1.6875 1.125 1.6875 1.125 2.6875 3.125 C2.83670573 5.04428447 2.92474984 6.96843392 2.98461914 8.89257812 C3.02455994 10.11415619 3.06450073 11.33573425 3.10565186 12.59432983 C3.1448754 13.94829681 3.1838698 15.30227043 3.22265625 16.65625 C3.26605133 18.06532536 3.30969663 19.47439303 3.35357666 20.88345337 C3.49383707 25.46374738 3.62241576 30.04433818 3.75 34.625 C3.794298 36.1897584 3.83859935 37.7545167 3.88290405 39.3192749 C4.43174945 58.88311181 4.90542255 78.44805683 4.98605347 98.02026367 C4.99533018 100.16856465 5.00940755 102.31685041 5.02835083 104.46508789 C5.05168964 107.41705649 5.054857 110.36827104 5.05078125 113.3203125 C5.06446747 114.60912827 5.06446747 114.60912827 5.07843018 115.92398071 C5.03301868 121.69459051 5.03301868 121.69459051 3.31266785 123.83761597 C1.07587503 125.60950148 -0.48729216 125.55829582 -3.3125 125.5625 C-4.17875 125.58183594 -5.045 125.60117187 -5.9375 125.62109375 C-8.3125 125.125 -8.3125 125.125 -9.93115234 123.36401367 C-11.44433836 120.91130443 -11.71382039 119.65226477 -11.7890625 116.8046875 C-11.8346228 115.44802979 -11.8346228 115.44802979 -11.88110352 114.06396484 C-11.89971436 113.05285645 -11.9183252 112.04174805 -11.9375 111 C-11.96835693 109.92572754 -11.99921387 108.85145508 -12.03100586 107.74462891 C-12.12098233 104.38924704 -12.19440987 101.03411897 -12.26104736 97.67822266 C-12.31931713 94.78671505 -12.38189262 91.89531611 -12.44482422 89.00390625 C-12.76148574 74.37810203 -13.04737958 59.75182421 -13.3125 45.125 C-18.20643943 45.11966185 -23.09800258 45.15333435 -27.99145508 45.22265625 C-29.65478457 45.24078695 -31.31826437 45.24839004 -32.98168945 45.24511719 C-35.37829173 45.2422513 -37.77179662 45.2776477 -40.16796875 45.3203125 C-40.9077446 45.31121857 -41.64752045 45.30212463 -42.40971375 45.29275513 C-46.31974533 45.40200043 -48.19479321 46.0321235 -51.28222656 48.46826172 C-54.45386899 52.97824748 -54.0088288 58.12891539 -53.94140625 63.4375 C-53.94381821 64.52458252 -53.94623016 65.61166504 -53.94871521 66.73168945 C-53.94773795 69.02461402 -53.93437344 71.31756253 -53.90942383 73.61035156 C-53.87511314 77.11344827 -53.88877388 80.61402158 -53.90820312 84.1171875 C-53.9013044 86.34896904 -53.89163179 88.58074408 -53.87890625 90.8125 C-53.88634605 92.37834839 -53.88634605 92.37834839 -53.89393616 93.97583008 C-53.78797395 100.54124186 -53.06179776 104.37570224 -48.3125 109.125 C-46.4948814 109.24642519 -44.67296406 109.30466757 -42.8515625 109.3359375 C-41.74039062 109.36429687 -40.62921875 109.39265625 -39.484375 109.421875 C-37.12776 109.47378282 -34.77096522 109.51810586 -32.4140625 109.5546875 C-31.3003125 109.585625 -30.1865625 109.6165625 -29.0390625 109.6484375 C-28.01377441 109.66825684 -26.98848633 109.68807617 -25.93212891 109.70849609 C-23.3125 110.125 -23.3125 110.125 -21.47412109 111.43994141 C-19.53631956 114.25093473 -20.0229375 116.82398747 -20.3125 120.125 C-21.33203125 122.34765625 -21.33203125 122.34765625 -22.3125 124.125 C-26.43839075 124.19977218 -30.56401308 124.25389223 -34.69042969 124.28979492 C-36.09089031 124.30477914 -37.49130483 124.32517379 -38.89160156 124.35131836 C-48.11962697 124.51916048 -55.95718283 124.5907768 -63.625 118.8125 C-67.89183603 114.54566397 -69.63998763 110.42689373 -69.9375 104.4375 C-70.00066406 103.220625 -70.06382812 102.00375 -70.12890625 100.75 C-70.19080961 99.2083615 -70.25191617 97.66669092 -70.3125 96.125 C-70.35616699 95.14144531 -70.39983398 94.15789062 -70.44482422 93.14453125 C-70.75133223 86.23416886 -71.00612213 79.32373333 -71.21289062 72.40966797 C-71.27578848 70.33558036 -71.34407749 68.26164283 -71.41992188 66.18798828 C-72.05656097 48.12497807 -72.05656097 48.12497807 -67.3125 41.125 C-66.77625 40.2175 -66.24 39.31 -65.6875 38.375 C-58.4081731 31.47879557 -49.83923473 29.95986904 -40.16796875 30.02734375 C-39.39818192 30.0287587 -38.62839508 30.03017365 -37.83528137 30.03163147 C-35.39014712 30.03720394 -32.94510632 30.04975129 -30.5 30.0625 C-28.83658987 30.06751856 -27.1731783 30.07208085 -25.50976562 30.07617188 C-21.44397472 30.08716434 -17.37825317 30.1044099 -13.3125 30.125 C-13.33868408 29.29250732 -13.36486816 28.46001465 -13.3918457 27.60229492 C-13.47710955 24.5105631 -13.53976752 21.4194305 -13.5871582 18.3269043 C-13.62464374 16.33146445 -13.68817535 14.33656948 -13.75195312 12.34179688 C-13.76806641 11.08818359 -13.78417969 9.83457031 -13.80078125 8.54296875 C-13.82696533 7.38563232 -13.85314941 6.2282959 -13.88012695 5.03588867 C-13.3125 2.125 -13.3125 2.125 -10.97338867 0.2434082 C-7.06114349 -1.4009624 -3.97732433 -1.50493353 0 0 Z " fill="#F9F9F9" transform="translate(418.3125,314.875)"/>
<path d="M0 0 C1.77117188 -0.03577148 1.77117188 -0.03577148 3.578125 -0.07226562 C13.16045378 -0.05643579 21.8710151 2.08753944 29.5625 8.0625 C37.26552976 15.96304334 37.34915048 25.58895229 37.625 36.0625 C37.67756958 37.90013916 37.67756958 37.90013916 37.73120117 39.77490234 C37.81952835 43.25024541 37.89403109 46.72519261 37.95709229 50.2010498 C37.98685721 51.8391789 38.01817488 53.47728023 38.05072021 55.11535645 C38.15782526 60.56809077 38.23741719 66.02029142 38.28509521 71.47387695 C38.30334285 73.28075812 38.3281076 75.0875854 38.35943604 76.89428711 C38.40116036 79.44281567 38.41681357 81.99023549 38.42578125 84.5390625 C38.44323898 85.30654816 38.46069672 86.07403381 38.47868347 86.86477661 C38.45748796 92.08406923 38.45748796 92.08406923 36.11206055 94.53686523 C33.74107657 95.68823544 32.12968139 95.99549712 29.5 96 C28.7471875 96.01933594 27.994375 96.03867187 27.21875 96.05859375 C24.01324799 95.34187059 22.99458858 94.1726422 21 91.5625 C20.58217401 88.68555502 20.39523722 86.17543004 20.390625 83.296875 C20.37408875 82.50347717 20.35755249 81.71007935 20.34051514 80.89263916 C20.29204384 78.36584731 20.27066713 75.83965719 20.25 73.3125 C20.22183943 71.59632391 20.19191188 69.88017584 20.16015625 68.1640625 C20.08628564 63.96359122 20.03670613 59.7634538 20 55.5625 C15.10702988 55.51294128 10.21420695 55.4767054 5.32104492 55.45263672 C3.65760756 55.44259943 1.99418775 55.42896669 0.33081055 55.41162109 C-2.06466005 55.38727251 -4.45989668 55.37599412 -6.85546875 55.3671875 C-7.5952446 55.35686493 -8.33502045 55.34654236 -9.09721375 55.33590698 C-13.14495672 55.3350339 -16.44583513 55.52828888 -20 57.5625 C-21.16152902 61.04708707 -21.13270324 63.82940508 -21.125 67.5 C-21.12757813 68.72589844 -21.13015625 69.95179688 -21.1328125 71.21484375 C-21.03055056 74.99618923 -21.03055056 74.99618923 -20 78.5625 C-16.77240867 79.63836378 -14.26653955 79.75047261 -10.87109375 79.84375 C-9.67162109 79.88113281 -8.47214844 79.91851562 -7.23632812 79.95703125 C-4.6998728 80.02745212 -2.16341445 80.09776428 0.37304688 80.16796875 C2.17032227 80.22404297 2.17032227 80.22404297 4.00390625 80.28125 C5.10549072 80.31154297 6.2070752 80.34183594 7.34204102 80.37304688 C10 80.5625 10 80.5625 12 81.5625 C12.05447047 82.97873216 12.09300508 84.39558191 12.125 85.8125 C12.14820313 86.60140625 12.17140625 87.3903125 12.1953125 88.203125 C11.98160881 90.78466563 11.206108 92.30052582 10 94.5625 C5.58922656 94.63721341 1.17879816 94.69136513 -3.23242188 94.72729492 C-4.72988307 94.74228888 -6.22730105 94.76269105 -7.72460938 94.78881836 C-25.59502978 95.09261551 -25.59502978 95.09261551 -32.2421875 89.765625 C-32.78101563 89.12109375 -33.31984375 88.4765625 -33.875 87.8125 C-34.70644531 86.86117187 -34.70644531 86.86117187 -35.5546875 85.890625 C-40.65550456 77.67417374 -40.21634669 65.89387609 -39 56.5625 C-37.60709855 52.78908804 -35.8927934 50.32348747 -33 47.5625 C-32.2575 46.77875 -31.515 45.995 -30.75 45.1875 C-20.70106268 39.24949158 -9.63398859 40.20915053 1.625 40.375 C3.41014497 40.3900734 5.19530224 40.40375711 6.98046875 40.41601562 C11.32062029 40.44881255 15.66017217 40.50044791 20 40.5625 C19.93963048 37.85190855 19.8524809 35.14656023 19.75 32.4375 C19.73582031 31.67695313 19.72164062 30.91640625 19.70703125 30.1328125 C19.48034519 24.87369588 18.46500411 21.74395233 15 17.5625 C10.42286496 15.27393248 4.14996359 16.24228157 -0.875 16.1875 C-2.16792969 16.15011719 -3.46085938 16.11273438 -4.79296875 16.07421875 C-6.65501953 16.05681641 -6.65501953 16.05681641 -8.5546875 16.0390625 C-9.69405762 16.01924316 -10.83342773 15.99942383 -12.00732422 15.97900391 C-15.18895535 16.30896384 -15.18895535 16.30896384 -17.35986328 18.93457031 C-19.50957037 22.37896554 -19.83052471 25.29356575 -20.3125 29.2578125 C-21.20127174 32.23721777 -22.32706487 33.04896867 -25 34.5625 C-28.71618416 34.96790191 -31.21664755 34.88680335 -34.6796875 33.453125 C-37 31.5625 -37 31.5625 -37.69921875 28.5234375 C-37.67182357 20.14051238 -36.74791088 14.80902484 -31 8.5625 C-30.29875 7.799375 -29.5975 7.03625 -28.875 6.25 C-19.76357713 0.90199093 -10.37718251 -0.09629482 0 0 Z " fill="#F6F6F6" transform="translate(620,344.4375)"/>
<path d="M0 0 C1.27681641 -0.02835937 2.55363281 -0.05671875 3.86914062 -0.0859375 C13.91227815 -0.10638155 23.67976365 1.68543223 31.8125 8 C38.84952699 15.40739683 38.45216906 22.5421284 38.53759766 32.34448242 C38.55417994 33.7382067 38.58150091 35.13184515 38.61962891 36.52514648 C38.67454223 38.54619547 38.69315983 40.56812705 38.7109375 42.58984375 C38.7406665 44.39763306 38.7406665 44.39763306 38.77099609 46.24194336 C38.1875 49.5 38.1875 49.5 36.23925781 52.39257812 C32.0380598 55.29375743 28.83161329 55.20577852 23.8359375 55.12890625 C22.94008942 55.13131821 22.04424133 55.13373016 21.12124634 55.13621521 C19.23345498 55.13523821 17.34563446 55.12187966 15.45800781 55.09692383 C12.56477031 55.06252699 9.67457316 55.07629309 6.78125 55.09570312 C4.94529948 55.08880693 3.10935684 55.07913659 1.2734375 55.06640625 C0.40778168 55.07136612 -0.45787415 55.07632599 -1.34976196 55.08143616 C-7.28859782 54.96452994 -7.28859782 54.96452994 -9.85693359 52.68725586 C-11.26040022 49.47477309 -11.1896623 46.95732108 -10.8125 43.5 C-9.7175293 41.8034668 -9.7175293 41.8034668 -7.8125 40.5 C-4.71801758 40.15942383 -4.71801758 40.15942383 -0.95703125 40.20703125 C-0.29539474 40.21127609 0.36624176 40.21552094 1.04792786 40.21989441 C3.1573691 40.23666307 5.26584846 40.27430901 7.375 40.3125 C8.80662681 40.32754932 10.23826862 40.3412373 11.66992188 40.35351562 C15.17609288 40.3865597 18.68170254 40.43832833 22.1875 40.5 C21.98586989 37.43341666 21.75241366 34.37497014 21.5 31.3125 C21.41975586 30.01602539 21.41975586 30.01602539 21.33789062 28.69335938 C21.26376953 27.85224609 21.18964844 27.01113281 21.11328125 26.14453125 C21.05567627 25.37471924 20.99807129 24.60490723 20.9387207 23.81176758 C19.80448701 20.32133572 18.0589629 18.74091587 15.1875 16.5 C11.86633125 15.78427781 11.86633125 15.78427781 8.2421875 15.94140625 C7.59049591 15.94373764 6.93880432 15.94606903 6.2673645 15.94847107 C4.89734707 15.95816967 3.52736739 15.97986775 2.15771484 16.01293945 C0.06157088 16.06252198 -2.03222762 16.07443265 -4.12890625 16.08007812 C-11.33498655 15.86843464 -11.33498655 15.86843464 -17.8125 18.5 C-18.77852089 21.39806267 -18.9549798 23.30179982 -18.98950195 26.31933594 C-19.00233719 27.2975531 -19.01517242 28.27577026 -19.02839661 29.28363037 C-19.03578354 30.3398761 -19.04317047 31.39612183 -19.05078125 32.484375 C-19.06288887 34.11780853 -19.06288887 34.11780853 -19.07524109 35.78424072 C-19.08907774 38.09084482 -19.09980177 40.39746937 -19.10766602 42.70410156 C-19.12486509 46.22240267 -19.16875471 49.73976078 -19.21289062 53.2578125 C-19.22301897 55.4999931 -19.23153463 57.74218168 -19.23828125 59.984375 C-19.25578934 61.0325238 -19.27329742 62.08067261 -19.29133606 63.1605835 C-19.27272485 69.46379489 -18.67205635 73.42253146 -14.8125 78.5 C-9.86526716 80.14907761 -4.74223752 79.68456031 0.4375 79.6875 C2.11779297 79.70586914 2.11779297 79.70586914 3.83203125 79.72460938 C9.6781044 79.73496252 14.67882169 79.514011 20.1875 77.5 C20.29707031 76.66855469 20.40664063 75.83710938 20.51953125 74.98046875 C20.67808594 73.89378906 20.83664062 72.80710937 21 71.6875 C21.15082031 70.60855469 21.30164063 69.52960938 21.45703125 68.41796875 C22.22218252 65.36145538 22.56006316 64.19362374 25.1875 62.5 C27.78125 62.06640625 27.78125 62.06640625 30.6875 62.0625 C31.6465625 62.04316406 32.605625 62.02382813 33.59375 62.00390625 C36.1875 62.5 36.1875 62.5 38.00390625 64.26953125 C40.3878334 68.76201442 39.74751391 73.28327828 38.53125 78.09765625 C36.14091101 84.9286681 32.71163563 89.04982846 26.35546875 92.4921875 C18.83743647 95.93181011 11.20988749 95.74909214 3.11499023 95.79516602 C1.71384554 95.80664948 0.31274334 95.82704384 -1.08813477 95.85668945 C-11.77846204 96.08237274 -20.40590601 95.05754312 -29.1875 88.5625 C-35.34920991 82.57515997 -36.93841983 73.5182154 -37.33007812 65.1940918 C-37.35596719 63.02928412 -37.3598466 60.86412139 -37.34375 58.69921875 C-37.3475769 57.53800003 -37.35140381 56.37678131 -37.35534668 55.18037415 C-37.35804617 52.74939089 -37.3508242 50.3183776 -37.33398438 47.88745117 C-37.31244987 44.17886718 -37.33390536 40.47219869 -37.359375 36.76367188 C-37.35673328 34.38801659 -37.35161154 32.01236249 -37.34375 29.63671875 C-37.35184692 28.53760666 -37.35994385 27.43849457 -37.36828613 26.30607605 C-37.27719327 18.80288377 -36.20647261 13.27190406 -31.0234375 7.51171875 C-21.39050842 0.56371246 -11.62666627 -0.02326497 0 0 Z " fill="#F7F7F6" transform="translate(480.8125,344.5)"/>
<path d="M0 0 C3.9659241 1.36122299 7.51276921 3.54981936 11.15942383 5.59472656 C11.97475586 6.04203125 12.79008789 6.48933594 13.63012695 6.95019531 C14.41452148 7.3871875 15.19891602 7.82417969 16.00708008 8.27441406 C16.72001221 8.67128418 17.43294434 9.0681543 18.16748047 9.47705078 C20.09045907 10.71556287 21.54919737 12.0441616 23.09692383 13.71972656 C22.51128662 14.06003906 21.92564941 14.40035156 21.32226562 14.75097656 C9.40944674 21.67738213 -2.48455503 28.63399146 -14.34057617 35.65722656 C-15.45078125 36.31464844 -16.56098633 36.97207031 -17.70483398 37.64941406 C-23.51768923 41.09780347 -29.31659112 44.56726424 -35.09838867 48.06738281 C-36.26316925 48.77126396 -37.42796394 49.47512178 -38.59277344 50.17895508 C-40.80139626 51.51531977 -43.00770976 52.85551036 -45.21142578 54.19995117 C-46.19377197 54.79428955 -47.17611816 55.38862793 -48.18823242 56.00097656 C-49.48579468 56.79084961 -49.48579468 56.79084961 -50.80957031 57.59667969 C-52.90307617 58.71972656 -52.90307617 58.71972656 -54.90307617 58.71972656 C-54.24307617 87.09972656 -53.58307617 115.47972656 -52.90307617 144.71972656 C-53.56307617 144.71972656 -54.22307617 144.71972656 -54.90307617 144.71972656 C-55.19698242 144.15769531 -55.49088867 143.59566406 -55.79370117 143.01660156 C-60.21387721 134.73512231 -65.05208404 126.71872821 -69.90307617 118.68457031 C-70.36384552 117.90606216 -70.82461487 117.12755402 -71.29934692 116.32545471 C-72.83934583 113.74942779 -72.83934583 113.74942779 -74.48794556 111.53544617 C-79.44675129 104.38433904 -79.70222724 98.36705172 -79.48901367 89.83691406 C-79.48052399 88.54149689 -79.4720343 87.24607971 -79.46328735 85.91140747 C-79.44060007 82.50117897 -79.38186157 79.09253388 -79.31506348 75.68292236 C-79.2531984 72.19019989 -79.22617915 68.69721639 -79.19604492 65.20410156 C-79.13209001 58.37533444 -79.0299642 51.54760693 -78.90307617 44.71972656 C-77.84741455 44.12804687 -76.79175293 43.53636719 -75.70410156 42.92675781 C-64.97398034 36.90754592 -64.97398034 36.90754592 -54.34057617 30.71972656 C-53.64134033 30.30730713 -52.94210449 29.8948877 -52.22167969 29.4699707 C-48.19807277 27.09269454 -44.19022604 24.6904317 -40.18994141 22.27416992 C-39.57965088 21.90557861 -38.96936035 21.5369873 -38.34057617 21.15722656 C-37.7335083 20.79056885 -37.12644043 20.42391113 -36.50097656 20.04614258 C-31.31897308 16.93337284 -26.05870259 13.97155769 -20.76904297 11.04614258 C-17.50172797 9.22766035 -14.29214135 7.36168252 -11.14526367 5.34082031 C-10.55503418 4.96320557 -9.96480469 4.58559082 -9.35668945 4.1965332 C-7.75539556 3.16090131 -6.16477395 2.10882078 -4.57495117 1.05566406 C-1.90307617 -0.28027344 -1.90307617 -0.28027344 0 0 Z " fill="#F9F9F8" transform="translate(440.903076171875,103.2802734375)"/>
<path d="M0 0 C3.12702407 1.31389979 6.04849056 2.9732311 8.98608398 4.65698242 C10.02756592 5.24721191 10.02756592 5.24721191 11.09008789 5.84936523 C17.27847572 9.38519315 23.35800092 13.0955594 29.39282227 16.88696289 C33.05675767 19.16646319 36.72904134 21.25022799 40.61108398 23.13745117 C46.7945355 26.16668776 52.61497888 29.75619282 58.48608398 33.34448242 C60.64319533 34.66114406 62.80201226 35.97501608 64.96264648 37.28588867 C65.90446777 37.86153564 66.84628906 38.43718262 67.81665039 39.03027344 C71.41440581 41.10035324 75.14850274 42.9256918 78.86108398 44.78198242 C78.86108398 53.69198242 78.86108398 62.60198242 78.86108398 71.78198242 C74.55159055 70.92008374 73.03683884 70.36719638 69.67749023 67.99291992 C67.57328146 66.59011407 65.40397555 65.41224205 63.17358398 64.21948242 C55.47139667 60.07134906 47.93457743 55.64047494 40.3737793 51.24194336 C37.92106677 49.81683445 35.46586298 48.39613831 33.00952148 46.97729492 C32.21884277 46.52032227 31.42816406 46.06334961 30.61352539 45.5925293 C29.03570175 44.68128673 27.45725617 43.77112017 25.87817383 42.86206055 C21.9127989 40.57348689 17.97253456 38.25279614 14.06420898 35.86791992 C13.29415527 35.40200439 12.52410156 34.93608887 11.73071289 34.45605469 C10.27421875 33.57255808 8.82299058 32.68029864 7.37817383 31.77783203 C2.42750379 28.71595632 2.42750379 28.71595632 -3.13891602 28.78198242 C-5.73882799 30.19958805 -8.12521334 31.6432088 -10.57641602 33.28198242 C-12.00987023 34.20999428 -13.44479287 35.13574146 -14.88110352 36.05932617 C-15.5975 36.52193848 -16.31389648 36.98455078 -17.05200195 37.46118164 C-20.04912167 39.35804847 -23.11138015 41.10237792 -26.20141602 42.84448242 C-30.92758665 45.51394295 -35.6143519 48.23228505 -40.26391602 51.03198242 C-40.86574707 51.39437012 -41.46757812 51.75675781 -42.08764648 52.13012695 C-44.10526727 53.34653401 -46.12207823 54.56427758 -48.13891602 55.78198242 C-51.70003269 57.93012008 -55.26290018 60.07532761 -58.82641602 62.21948242 C-59.68831543 62.73994141 -60.55021484 63.26040039 -61.43823242 63.79663086 C-62.2508252 64.28550781 -63.06341797 64.77438477 -63.90063477 65.27807617 C-64.62210693 65.7130542 -65.3435791 66.14803223 -66.08691406 66.59619141 C-68.06992909 67.74211693 -70.07959001 68.7808608 -72.13891602 69.78198242 C-71.53859759 65.86090406 -70.33568205 62.90713733 -68.44360352 59.43041992 C-67.89188477 58.41334961 -67.34016602 57.3962793 -66.77172852 56.34838867 C-66.19165039 55.29522461 -65.61157227 54.24206055 -65.01391602 53.15698242 C-64.45704102 52.12702148 -63.90016602 51.09706055 -63.32641602 50.03588867 C-56.3077682 37.179149 -50.72633906 27.73525338 -37.88891602 20.40698242 C-36.40059382 19.54898053 -34.91231571 18.69090215 -33.42407227 17.83276367 C-32.5992334 17.35919434 -31.77439453 16.885625 -30.92456055 16.39770508 C-28.32038406 14.88723707 -25.73079058 13.35399292 -23.14553833 11.81140137 C-20.79625478 10.41166183 -18.44084736 9.02242908 -16.08459473 7.63446045 C-14.91506492 6.94267338 -13.74796576 6.24676005 -12.58337402 5.54669189 C-10.93559822 4.55756742 -9.27765455 3.58544234 -7.61938477 2.61401367 C-6.6592749 2.04400635 -5.69916504 1.47399902 -4.70996094 0.88671875 C-2.13891602 -0.21801758 -2.13891602 -0.21801758 0 0 Z " fill="#F9F9F8" transform="translate(439.138916015625,68.218017578125)"/>
<path d="M0 0 C2.94949605 2.8597622 4.94017402 5.37598244 6.828125 9.03515625 C9.95438943 14.95048112 13.3204409 20.69397402 16.75 26.4375 C17.89187467 28.35211983 19.03254971 30.26745577 20.171875 32.18359375 C20.6678418 33.01431396 21.16380859 33.84503418 21.67480469 34.70092773 C22.33077637 35.83896851 22.33077637 35.83896851 23 37 C23.37979004 37.60932373 23.75958008 38.21864746 24.15087891 38.84643555 C25.39289501 41.99647122 25.33276528 44.89605898 25.4140625 48.2734375 C25.44406342 49.34184624 25.44406342 49.34184624 25.47467041 50.43183899 C25.53636757 52.74612571 25.58295695 55.06027639 25.625 57.375 C25.63936096 58.16089508 25.65372192 58.94679016 25.66851807 59.75650024 C25.68975739 60.94014664 25.68975739 60.94014664 25.71142578 62.14770508 C25.72565582 62.93620346 25.73988586 63.72470184 25.75454712 64.53709412 C25.78274137 66.12297477 25.80941638 67.70888317 25.83456421 69.29481506 C25.91764497 73.8571092 26.14164614 78.37593255 26.515625 82.92578125 C27.47058555 96.27018438 27.47058555 96.27018438 23.62890625 100.7890625 C20.79918789 102.58318014 18.05167819 103.9441795 14.93798828 105.16943359 C11.54049881 106.62550051 8.49789188 108.66298835 5.375 110.625 C1.19895944 113.14824431 -3.00578715 115.57984522 -7.3125 117.875 C-12.12761836 120.46010779 -16.78223672 123.26599588 -21.4375 126.125 C-22.19224609 126.58664551 -22.94699219 127.04829102 -23.72460938 127.52392578 C-27.97610211 130.12845183 -32.20938771 132.7592851 -36.4296875 135.4140625 C-38.22374123 136.52639191 -40.01800726 137.63837898 -41.8125 138.75 C-42.65417725 139.2877002 -43.49585449 139.82540039 -44.36303711 140.37939453 C-45.15718018 140.86778809 -45.95132324 141.35618164 -46.76953125 141.859375 C-47.81524292 142.51631348 -47.81524292 142.51631348 -48.88208008 143.18652344 C-51.69151049 144.2656038 -53.14636108 143.88802434 -56 143 C-58.40356445 141.87670898 -58.40356445 141.87670898 -60.86328125 140.49609375 C-61.74951172 140.00302734 -62.63574219 139.50996094 -63.54882812 139.00195312 C-64.9168457 138.22754883 -64.9168457 138.22754883 -66.3125 137.4375 C-67.24384766 136.91736328 -68.17519531 136.39722656 -69.13476562 135.86132812 C-71.42663795 134.58023026 -73.71481613 133.29297895 -76 132 C-76 131.34 -76 130.68 -76 130 C-73.6118054 128.44705481 -71.2280619 127.02257347 -68.75 125.625 C-67.20112329 124.73559227 -65.65297796 123.84490997 -64.10546875 122.953125 C-63.28095215 122.47939453 -62.45643555 122.00566406 -61.60693359 121.51757812 C-58.88225541 119.93145717 -56.18308926 118.30819466 -53.48828125 116.671875 C-52.58432617 116.12321777 -51.68037109 115.57456055 -50.74902344 115.00927734 C-48.97325138 113.92903215 -47.19912928 112.84606948 -45.42675781 111.76025391 C-44.6169043 111.26960449 -43.80705078 110.77895508 -42.97265625 110.2734375 C-41.89383179 109.61480713 -41.89383179 109.61480713 -40.79321289 108.94287109 C-39 108 -39 108 -37 108 C-37 107.34 -37 106.68 -37 106 C-36.40936768 105.71592285 -35.81873535 105.4318457 -35.21020508 105.13916016 C-28.50609394 101.85804929 -22.08914475 98.2081106 -15.6875 94.375 C-14.72521484 93.80265625 -13.76292969 93.2303125 -12.77148438 92.640625 C-7.51842183 89.51903606 -7.51842183 89.51903606 -2.31567383 86.31494141 C0 85 0 85 2 85 C1.97494385 84.34807678 1.9498877 83.69615356 1.92407227 83.0244751 C1.65816718 76.07823244 1.39987601 69.13173305 1.14550781 62.18505859 C1.05035373 59.61174729 0.95342192 57.03850095 0.85449219 54.46533203 C0.15758907 36.29607218 -0.13803235 18.18151471 0 0 Z " fill="#F8F8F7" transform="translate(555,108)"/>
<path d="M0 0 C3.90074018 1.25737656 7.21939609 2.55961859 10.6875 4.75 C14.11042028 6.87774304 17.5651642 8.88145093 21.1171875 10.78515625 C26.96862854 13.95757105 32.70438953 17.30721329 38.4375 20.6875 C47.07286094 25.7579895 55.76440124 30.69704528 64.57983398 35.44799805 C67.95265733 37.27475035 71.10798883 39.07676314 74.2421875 41.3046875 C77.31800862 43.19548972 78.47999217 43.67692458 82 43 C84.33139739 41.81081115 86.43655202 40.59814028 88.625 39.1875 C89.95200039 38.3601726 91.28018548 37.53474322 92.609375 36.7109375 C93.31513672 36.27104492 94.02089844 35.83115234 94.74804688 35.37792969 C99.50364526 32.46806442 104.36700982 29.73826806 109.21337891 26.9831543 C113.93960645 24.27167492 118.48133494 21.37465025 122.99511719 18.32348633 C125.32154291 16.78773939 127.7087463 15.46124782 130.1875 14.1875 C135.46569517 11.38392608 140.43828745 8.21015419 145.4050293 4.89526367 C149.79297881 2 149.79297881 2 152 2 C150.18378718 7.1041843 147.49989914 11.71809646 144.875 16.4375 C144.38435059 17.32187744 143.89370117 18.20625488 143.38818359 19.11743164 C142.39508209 20.90465817 141.40046874 22.69104552 140.40429688 24.4765625 C139.15063331 26.72932095 137.90928935 28.98829362 136.671875 31.25 C135.99019633 32.47950673 135.30794868 33.70869826 134.625 34.9375 C134.03976562 35.99839844 133.45453125 37.05929688 132.8515625 38.15234375 C129.57403701 43.19309498 125.7751446 46.39891363 120.5625 49.3125 C119.50417969 49.91191406 118.44585938 50.51132812 117.35546875 51.12890625 C116.24816406 51.74636719 115.14085937 52.36382812 114 53 C111.78980648 54.24670796 109.58152764 55.49681531 107.375 56.75 C106.8080542 57.06936523 106.2411084 57.38873047 105.65698242 57.71777344 C102.13003176 59.72212901 98.67693527 61.81692783 95.25 63.98828125 C94.44127441 64.49713867 93.63254883 65.00599609 92.79931641 65.53027344 C91.20623316 66.53714055 89.61969431 67.55445188 88.04052734 68.58300781 C87.3130127 69.0415918 86.58549805 69.50017578 85.8359375 69.97265625 C85.19188965 70.38781494 84.5478418 70.80297363 83.88427734 71.23071289 C81.44717975 72.22569793 80.44052165 71.9200134 78 71 C76.56550406 70.31458231 75.15352531 69.58090778 73.76171875 68.8125 C72.95001221 68.36608154 72.13830566 67.91966309 71.30200195 67.4597168 C70.43921631 66.97801025 69.57643066 66.49630371 68.6875 66 C67.78668701 65.50089111 66.88587402 65.00178223 65.95776367 64.48754883 C60.25833709 61.31185731 54.64412861 58.02884121 49.0769043 54.62695312 C42.97397954 50.9251658 36.73687106 47.46984425 30.5 44 C9.29742256 32.19828171 9.29742256 32.19828171 0 26 C-0.34057617 23.38623047 -0.34057617 23.38623047 -0.29296875 20.1171875 C-0.2784668 18.36728516 -0.2784668 18.36728516 -0.26367188 16.58203125 C-0.23853516 15.35871094 -0.21339844 14.13539063 -0.1875 12.875 C-0.17396484 11.64394531 -0.16042969 10.41289062 -0.14648438 9.14453125 C-0.11103543 6.09592157 -0.06162079 3.048175 0 0 Z " fill="#F9F9F8" transform="translate(424,215)"/>
<path d="M0 0 C1.03756584 10.21586236 1.30112707 20.41451477 1.53515625 30.671875 C1.57825975 32.44835141 1.62167639 34.22482024 1.66539001 36.00128174 C1.77863516 40.63709584 1.88767551 45.2729993 1.99578857 49.90893555 C2.10724327 54.65549851 2.22274606 59.40196287 2.33789062 64.1484375 C2.56251702 73.43220045 2.78269374 82.71606302 3 92 C3.61886078 92.14468719 4.23772156 92.28937439 4.87533569 92.43844604 C7.22299463 93.05893802 8.99772817 93.98664383 11.1015625 95.1953125 C11.89208008 95.64551758 12.68259766 96.09572266 13.49707031 96.55957031 C14.32303711 97.03491211 15.14900391 97.51025391 16 98 C17.65317759 98.93572358 19.30683558 99.87059885 20.9609375 100.8046875 C22.76567122 101.82804349 24.57035644 102.85148503 26.375 103.875 C32.97494983 107.61495341 39.58568776 111.33399769 46.22265625 115.0078125 C46.82505127 115.34142792 47.42744629 115.67504333 48.0480957 116.01876831 C50.98460397 117.64442 53.92264676 119.26715922 56.86279297 120.88623047 C62.68166841 124.10304921 68.45131462 127.33233919 74 131 C74 131.33 74 131.66 74 132 C67.50820478 132.15325235 61.01688284 132.25767223 54.52368164 132.32958984 C52.31907724 132.35959763 50.11459055 132.40041795 47.91040039 132.45263672 C25.30105711 132.97450887 25.30105711 132.97450887 16 126 C14.36162964 125.07125987 12.70895403 124.16730432 11.04296875 123.2890625 C-14.90134021 109.06577319 -14.90134021 109.06577319 -21 105 C-21.39199829 102.72772217 -21.39199829 102.72772217 -21.41650391 99.85449219 C-21.43307037 98.77866882 -21.44963684 97.70284546 -21.46670532 96.59442139 C-21.46995819 95.42373108 -21.47321106 94.25304077 -21.4765625 93.046875 C-21.49214203 91.83992981 -21.50772156 90.63298462 -21.52377319 89.38946533 C-21.57144175 85.50965121 -21.59904994 81.63001501 -21.625 77.75 C-21.66171805 73.91296383 -21.70269193 70.07602305 -21.74765015 66.23907471 C-21.77444173 63.8504185 -21.79597393 61.46169502 -21.81118774 59.07293701 C-21.88544227 51.01482714 -22.36193045 43.03163283 -23 35 C-23.27644441 31.16548841 -23.48817858 27.34194534 -23.625 23.5 C-23.69589844 22.56414062 -23.76679688 21.62828125 -23.83984375 20.6640625 C-23.91561923 17.84840522 -23.85362341 15.68775253 -23 13 C-20.33650118 10.32096234 -17.33745094 8.71964983 -14 7 C-12.95070313 6.30132812 -11.90140625 5.60265625 -10.8203125 4.8828125 C-9.93085938 4.30273438 -9.04140625 3.72265625 -8.125 3.125 C-7.22007812 2.52945313 -6.31515625 1.93390625 -5.3828125 1.3203125 C-3 0 -3 0 0 0 Z " fill="#FAFAF9" transform="translate(415,154)"/>
<path d="M0 0 C6.45492599 -0.20478745 12.90899935 -0.34373748 19.36645508 -0.43945312 C21.55752865 -0.47939918 23.74839293 -0.53377777 25.9387207 -0.60351562 C39.90218906 -1.03659013 48.74225138 -0.83318912 60 8 C61.82833161 9.07064464 63.68002022 10.1025753 65.5546875 11.08984375 C66.4425293 11.5679248 67.33037109 12.04600586 68.24511719 12.53857422 C70.15926924 13.5540044 72.07685014 14.56298666 73.99707031 15.56689453 C77.06550005 17.18886239 80.09507485 18.86988073 83.125 20.5625 C84.68347656 21.36010742 84.68347656 21.36010742 86.2734375 22.17382812 C93.3736008 26.23040048 93.3736008 26.23040048 94.87768555 30.47949219 C95.13293875 33.26789405 95.15416797 35.97530096 95.05236816 38.77206421 C94.96806799 42.35850615 95.11732355 45.93655433 95.22521973 49.52154541 C95.45157445 57.39987169 95.55580954 65.28100606 95.64941406 73.16186523 C95.67849851 75.48421904 95.70811528 77.80656624 95.73828125 80.12890625 C95.75257172 81.25946945 95.76686218 82.39003265 95.78158569 83.55485535 C95.88016975 89.74468856 96.15206381 95.86473962 96.73046875 102.02734375 C97.81683937 115.29102883 97.81683937 115.29102883 96 120 C90.22370106 126.7655839 81.465084 130.01260834 73 132 C72.30313969 120.96139064 71.7498906 109.93164195 71.4375 98.875 C71.41632111 98.15162445 71.39514221 97.4282489 71.37332153 96.68295288 C70.84204435 78.12445778 70.90260164 59.564128 71 41 C70.43571289 40.88914063 69.87142578 40.77828125 69.29003906 40.6640625 C66.67265338 39.90507646 64.69252559 38.78298438 62.359375 37.375 C61.46154297 36.83770264 60.56371094 36.30040527 59.63867188 35.74682617 C58.68541016 35.17037354 57.73214844 34.5939209 56.75 34 C54.75599131 32.80728377 52.76119431 31.61588451 50.765625 30.42578125 C49.78400391 29.84006348 48.80238281 29.2543457 47.79101562 28.65087891 C42.18913557 25.33738057 36.49792922 22.18539613 30.81298828 19.01757812 C28.42288468 17.67608178 26.04869614 16.30779478 23.67431641 14.9387207 C15.87702691 10.44382554 7.96267254 6.19322812 0 2 C0 1.34 0 0.68 0 0 Z " fill="#FAFAF8" transform="translate(454,69)"/>
<path d="M0 0 C0.66202927 -0.00191345 1.32405853 -0.0038269 2.00614929 -0.00579834 C3.40213401 -0.00715409 4.79813159 -0.00350036 6.1940918 0.00488281 C8.30742457 0.01554031 10.41989743 0.00499392 12.53320312 -0.0078125 C23.18614834 -0.02001952 32.16037182 0.84670929 41.01171875 7.265625 C46.69899933 13.17377085 48.3055824 19.79321698 48.38671875 27.890625 C48.41507812 29.18226563 48.4434375 30.47390625 48.47265625 31.8046875 C48.01171875 35.265625 48.01171875 35.265625 46.2734375 37.69921875 C43.73260555 39.45893138 42.50580107 39.78070323 39.44921875 39.703125 C38.30259766 39.70119141 38.30259766 39.70119141 37.1328125 39.69921875 C34.51064164 39.16319487 33.63519551 38.36282143 32.01171875 36.265625 C30.66836732 32.23557071 30.58270608 28.30001174 30.29296875 24.078125 C30.10824677 21.1881076 30.10824677 21.1881076 29.01171875 18.265625 C23.54938042 15.2940831 17.51696016 15.89353799 11.46411133 15.89501953 C9.4511354 15.89062918 7.44032554 15.85421753 5.42773438 15.81640625 C4.15478516 15.81253906 2.88183594 15.80867188 1.5703125 15.8046875 C0.40814209 15.79646973 -0.75402832 15.78825195 -1.95141602 15.77978516 C-4.99554282 16.0823616 -4.99554282 16.0823616 -7.3671875 17.63354492 C-9.95479164 21.83489436 -9.53866228 26.0022902 -9.484375 30.83984375 C-9.48583023 31.87824905 -9.48728546 32.91665436 -9.48878479 33.98652649 C-9.48712513 36.18464968 -9.47555644 38.38278441 -9.45483398 40.58081055 C-9.42603625 43.92352532 -9.43419342 47.264638 -9.44726562 50.60742188 C-9.44102299 52.74740346 -9.43262796 54.88738007 -9.421875 57.02734375 C-9.42481064 58.01828537 -9.42774628 59.00922699 -9.43077087 60.03019714 C-9.35084154 66.00027424 -9.09459725 72.00285135 -5.98828125 77.265625 C-0.24543406 80.422541 6.73524852 79.63358268 13.13671875 79.640625 C14.31621094 79.66511719 15.49570313 79.68960938 16.7109375 79.71484375 C17.84402344 79.71871094 18.97710937 79.72257812 20.14453125 79.7265625 C21.17465332 79.73478027 22.20477539 79.74299805 23.26611328 79.75146484 C26.70560317 79.1428409 27.84573633 77.94301128 30.01171875 75.265625 C31.89921928 71.49062394 31.31142756 66.81317548 31.4375 62.6484375 C32.01171875 59.265625 32.01171875 59.265625 33.7578125 56.8359375 C36.37665466 55.01137156 37.61403607 54.8304672 40.76171875 55.015625 C41.96054688 55.06976563 41.96054688 55.06976563 43.18359375 55.125 C43.786875 55.17140625 44.39015625 55.2178125 45.01171875 55.265625 C45.01171875 55.925625 45.01171875 56.585625 45.01171875 57.265625 C46.33171875 57.925625 47.65171875 58.585625 49.01171875 59.265625 C49.1207338 62.10001637 49.19949779 64.93012703 49.26171875 67.765625 C49.29523438 68.55710937 49.32875 69.34859375 49.36328125 70.1640625 C49.47195109 76.79292256 47.87599624 81.79579201 43.62597656 86.94433594 C35.01448479 95.3266047 22.94014014 95.90927014 11.57421875 95.765625 C10.35412109 95.78109375 9.13402344 95.7965625 7.87695312 95.8125 C-1.8892781 95.77096366 -12.48067586 94.76638356 -20.11328125 88.078125 C-29.69755499 76.88065667 -27.17477738 58.62249486 -27.17358398 44.85546875 C-27.17578741 42.00766409 -27.1940525 39.16023735 -27.21289062 36.3125 C-27.21582256 34.47916797 -27.21780869 32.64583413 -27.21875 30.8125 C-27.22593552 29.97273621 -27.23312103 29.13297241 -27.24052429 28.26776123 C-27.21070787 20.49987625 -26.25279904 13.3400686 -20.98828125 7.265625 C-18.11085973 5.32040184 -15.13490953 3.73016025 -11.98828125 2.265625 C-11.25963867 1.91886719 -10.53099609 1.57210938 -9.78027344 1.21484375 C-6.39363005 0.06345607 -3.57587658 0.00660321 0 0 Z " fill="#F5F5F5" transform="translate(183.98828125,344.734375)"/>
<path d="M0 0 C1.23234375 -0.02900391 2.4646875 -0.05800781 3.734375 -0.08789062 C5.51714844 -0.10045898 5.51714844 -0.10045898 7.3359375 -0.11328125 C8.96474854 -0.13515503 8.96474854 -0.13515503 10.62646484 -0.1574707 C14.4278397 0.43833182 15.94756657 1.572105 18.625 4.3125 C22.26022906 9.58410281 22.04748841 14.6165086 21.98828125 20.78515625 C21.98902901 22.28616127 21.98902901 22.28616127 21.98979187 23.81748962 C21.98745806 25.92627963 21.97777056 28.03507278 21.96118164 30.14379883 C21.93755421 33.36760399 21.94063063 36.59058313 21.94726562 39.81445312 C21.94168946 41.86719242 21.93457997 43.91992824 21.92578125 45.97265625 C21.92714836 47.41500389 21.92714836 47.41500389 21.92854309 48.88648987 C21.86495092 54.89885581 21.7881097 59.10286671 17.40014648 63.58520508 C12.28034523 66.77185009 6.55985284 66.00896542 0.6875 66 C-1.20645508 66.0609082 -1.20645508 66.0609082 -3.13867188 66.12304688 C-13.48552647 66.16126745 -13.48552647 66.16126745 -17.19921875 62.51171875 C-20.45718284 57.58271628 -20.26576843 52.16697879 -20.25 46.4375 C-20.27549927 44.74318848 -20.27549927 44.74318848 -20.30151367 43.01464844 C-20.33253802 40.64629252 -20.35046979 38.27773244 -20.35595703 35.90917969 C-20.3747698 32.3559784 -20.45891427 28.80957573 -20.55859375 25.2578125 C-20.60369533 23.02608375 -20.64674084 20.79431228 -20.6875 18.5625 C-20.71763184 17.5223877 -20.74776367 16.48227539 -20.77880859 15.41064453 C-20.82336251 9.41368785 -20.50720587 5.80953125 -16.375 1.3125 C-11.10718556 -0.44343815 -5.51379993 0.04298701 0 0 Z " fill="#030303" transform="translate(289.375,359.6875)"/>
<path d="M0 0 C0.86625 -0.00773437 1.7325 -0.01546875 2.625 -0.0234375 C5.44961615 0.45042903 6.29881656 1.11029955 8 3.375 C8.99950646 6.37351938 9.15337293 8.45185558 9.20532227 11.58862305 C9.23520233 13.19851357 9.23520233 13.19851357 9.26568604 14.84092712 C9.29079254 16.59609398 9.29079254 16.59609398 9.31640625 18.38671875 C9.33741394 19.60722427 9.35842163 20.8277298 9.38006592 22.08522034 C9.44674009 26.07758065 9.50560678 30.06999204 9.5625 34.0625 C9.58250396 35.42745022 9.60255404 36.79239977 9.62265015 38.15734863 C9.72250549 44.99657745 9.81489016 51.83587015 9.90039062 58.67529297 C9.96035179 63.45055004 10.02775874 68.22552003 10.10742188 73.00048828 C10.18560979 77.70212115 10.2451339 82.40351878 10.28610229 87.10562134 C10.30354393 88.77023854 10.32777208 90.43480003 10.35916138 92.09921265 C10.67140819 109.29648576 10.67140819 109.29648576 4.50683594 115.99829102 C-1.29776949 121.30162381 -10.02258081 121.80891341 -17.46875 121.7109375 C-20 121.375 -20 121.375 -23 119.375 C-23.36328125 117.0625 -23.36328125 117.0625 -23.3125 114.375 C-23.30863281 113.488125 -23.30476562 112.60125 -23.30078125 111.6875 C-23 109.375 -23 109.375 -21 107.375 C-18.46565987 107.0707053 -15.96069737 106.99670153 -13.41015625 106.9140625 C-10.86825479 106.58105255 -10.86825479 106.58105255 -9.24609375 104.5234375 C-6.7366228 100.19676345 -6.84747896 96.22509199 -6.875 91.375 C-6.87790039 90.07695435 -6.87790039 90.07695435 -6.88085938 88.75268555 C-6.92867996 80.95593834 -7.17913267 73.1672034 -7.43035889 65.375 C-7.86254427 51.79960623 -8.157488 38.22557572 -8.23217773 24.64315796 C-8.24402126 22.80361882 -8.26107753 20.96410556 -8.28344727 19.12466431 C-8.31317062 16.55169235 -8.32333241 13.97937344 -8.328125 11.40625 C-8.34043152 10.63600998 -8.35273804 9.86576996 -8.36541748 9.07218933 C-8.34369264 3.87023541 -8.34369264 3.87023541 -6.62792969 1.39794922 C-4.35884842 -0.02788319 -2.66328285 -0.02377931 0 0 Z " fill="#FAFAFA" transform="translate(550,344.625)"/>
<path d="M0 0 C3.02663554 1.42448644 5.8462993 3.11390457 8.6875 4.875 C9.43322266 5.32230469 10.17894531 5.76960938 10.94726562 6.23046875 C14.42616483 8.33456657 17.81508221 10.46214994 21 13 C18.875 14.625 18.875 14.625 16 16 C10.39251974 14.64647028 6.32628679 11.64938597 1.68359375 8.36328125 C-0.85599372 6.81019553 -0.85599372 6.81019553 -3.40625 7.0390625 C-6.84457534 8.3128999 -9.84930393 10.11831829 -12.9375 12.0625 C-14.2791444 12.88802605 -15.62161111 13.71221698 -16.96484375 14.53515625 C-17.64015137 14.95039551 -18.31545898 15.36563477 -19.01123047 15.79345703 C-21.97396141 17.59088108 -24.98337178 19.29435242 -28 21 C-33.43719617 24.08128187 -38.80747615 27.26179263 -44.15942383 30.48852539 C-49.15347057 33.49766721 -54.1647643 36.47649155 -59.1875 39.4375 C-59.90655518 39.86272949 -60.62561035 40.28795898 -61.36645508 40.72607422 C-62.38195435 41.32379639 -62.38195435 41.32379639 -63.41796875 41.93359375 C-64.01375732 42.28478271 -64.6095459 42.63597168 -65.22338867 42.99780273 C-67.11836836 44.06677231 -69.04675287 45.04230481 -71 46 C-71.495 44.515 -71.495 44.515 -72 43 C-74.00016466 41.79117904 -74.00016466 41.79117904 -76 41 C-61.42958105 30.9310113 -45.81819145 22.31467721 -30.53125 13.390625 C-29.43345215 12.74818848 -29.43345215 12.74818848 -28.31347656 12.09277344 C-26.86873162 11.24758798 -25.42278923 10.40444567 -23.97558594 9.56347656 C-18.97517229 6.63817603 -14.18245646 3.48824297 -9.4921875 0.08203125 C-5.8625517 -1.49384511 -3.81511394 -1.00062027 0 0 Z " fill="#0F0F0E" transform="translate(443,97)"/>
<path d="M0 0 C10.2218697 4.99145845 20.18923315 10.23488358 30 16 C31.37493966 16.80348868 32.74994213 17.60686989 34.125 18.41015625 C36.9922115 20.08764126 39.85347165 21.77472296 42.7109375 23.46875 C45.59882384 25.18009005 48.50045285 26.86411129 51.4140625 28.53125 C52.79694609 29.33321076 54.17976148 30.13528914 55.5625 30.9375 C56.21210693 31.30286865 56.86171387 31.6682373 57.53100586 32.04467773 C59.31640625 33.08984375 59.31640625 33.08984375 62 35 C62 35.99 62 36.98 62 38 C61.01 38 60.02 38 59 38 C58.01 38.99 58.01 38.99 57 40 C46.92241331 34.26893833 36.85101338 28.53157876 26.875 22.625 C21.60602789 19.50842546 16.30784244 16.47930933 10.9140625 13.58203125 C7.02395623 11.47011028 3.16859576 9.29825147 -0.6875 7.125 C-1.4081665 6.71886475 -2.12883301 6.31272949 -2.87133789 5.89428711 C-4.58121022 4.93008897 -6.29065204 3.96512745 -8 3 C-5 1 -5 1 -1 1 C-0.67 0.67 -0.34 0.34 0 0 Z " fill="#111110" transform="translate(459,73)"/>
<path d="M0 0 C3.74871934 2.01854119 7.19288378 4.06686471 9 8 C9.19638314 12.42680324 8.85992888 15.88209246 6.125 19.4375 C2.28261641 22.26278205 -0.05130737 23.5036059 -4.93359375 23.38671875 C-9.27423012 22.57438794 -11.87275473 19.58839107 -14.375 16.0625 C-15.25305965 13.16490316 -15.36926081 11.01562998 -15 8 C-10.98022371 1.82677213 -7.51506893 -0.90699108 0 0 Z " fill="#F3F3F3" transform="translate(552,313)"/>
<path d="M0 0 C4.27926035 1.27560918 7.69612191 2.88916634 11.4375 5.3125 C20.58688107 11.07713894 30.04620208 16.29099893 39.47558594 21.58007812 C42.6595501 23.37098098 45.83151656 25.18187301 49 27 C48.505 29.475 48.505 29.475 48 32 C45 33 45 33 42.73852539 32.03125 C41.43129517 31.27328125 41.43129517 31.27328125 40.09765625 30.5 C38.64697754 29.66867554 38.64697754 29.66867554 37.16699219 28.82055664 C36.14250977 28.21977295 35.11802734 27.61898926 34.0625 27 C33.01868164 26.39857178 31.97486328 25.79714355 30.89941406 25.17749023 C27.92684882 23.46188881 24.96210131 21.7335898 22 20 C20.73315496 19.26157798 19.46624464 18.52326791 18.19921875 17.78515625 C16.32605765 16.69103169 14.4547402 15.59373983 12.5859375 14.4921875 C8.83174758 12.32587247 5.01077831 10.28831026 1.1796875 8.26171875 C-1 7 -1 7 -3 5 C-2 2 -2 2 0 0 Z " fill="#101010" transform="translate(425,242)"/>
<path d="M0 0 C1.98 0.99 3.96 1.98 6 3 C6 3.33 6 3.66 6 4 C-7.53 4 -21.06 4 -35 4 C-35 3.67 -35 3.34 -35 3 C-23.45 3 -11.9 3 0 3 C0 2.01 0 1.02 0 0 Z " fill="#F2F2F2" transform="translate(483,282)"/>
<path d="M0 0 C3.77545388 1.09068668 6.47043472 1.9083091 9 5 C7.375 6.625 7.375 6.625 5 8 C1.75 7.1875 1.75 7.1875 -1 6 C-0.34 5.67 0.32 5.34 1 5 C0.34 3.68 -0.32 2.36 -1 1 C-0.67 0.67 -0.34 0.34 0 0 Z " fill="#141414" transform="translate(481,241)"/>
<path d="M0 0 C0.66 0 1.32 0 2 0 C0.79618552 2.49361571 -0.45428722 4.68143083 -2 7 C-2.36749389 9.61289494 -2.36749389 9.61289494 -2.4140625 12.54296875 C-2.45273437 13.61611328 -2.49140625 14.68925781 -2.53125 15.79492188 C-2.5621875 16.91447266 -2.593125 18.03402344 -2.625 19.1875 C-2.66367187 20.31865234 -2.70234375 21.44980469 -2.7421875 22.61523438 C-2.83652533 25.4099925 -2.92211652 28.20474278 -3 31 C-3.33 31 -3.66 31 -4 31 C-4.11662261 26.95857785 -4.1873935 22.91759135 -4.25 18.875 C-4.28351563 17.73289062 -4.31703125 16.59078125 -4.3515625 15.4140625 C-4.47662134 4.65900221 -4.47662134 4.65900221 0 0 Z " fill="#363635" transform="translate(273,361)"/>
<path d="M0 0 C0.66 1.32 1.32 2.64 2 4 C-0.40921705 6.40921705 -2.94334509 7.53812156 -6 9 C-4.68775452 5.06326356 -3.08089673 2.77280706 0 0 Z " fill="#E5E5E5" transform="translate(165,351)"/>
<path d="M0 0 C2.97 0 5.94 0 9 0 C9 0.66 9 1.32 9 2 C8.34 2 7.68 2 7 2 C7.33 2.99 7.66 3.98 8 5 C2.25 3.125 2.25 3.125 0 2 C0 1.34 0 0.68 0 0 Z " fill="#DCDCDA" transform="translate(454,69)"/>
<path d="M0 0 C0.66 0.33 1.32 0.66 2 1 C0.125 4.875 0.125 4.875 -1 6 C-2.68608966 6.07205511 -4.37500659 6.08386068 -6.0625 6.0625 C-6.98160156 6.05347656 -7.90070313 6.04445313 -8.84765625 6.03515625 C-9.55792969 6.02355469 -10.26820313 6.01195312 -11 6 C-11 5.67 -11 5.34 -11 5 C-9.1128125 4.87625 -9.1128125 4.87625 -7.1875 4.75 C-3.66188788 4.33442857 -3.66188788 4.33442857 -1 1.9375 C-0.67 1.298125 -0.34 0.65875 0 0 Z " fill="#D5D5D5" transform="translate(421,434)"/>
<path d="M0 0 C1.98 0.99 3.96 1.98 6 3 C6 3.33 6 3.66 6 4 C1.38 4 -3.24 4 -8 4 C-8 3.67 -8 3.34 -8 3 C-5.36 3 -2.72 3 0 3 C0 2.01 0 1.02 0 0 Z " fill="#E3E3E3" transform="translate(483,282)"/>
<path d="M0 0 C0 2.64 0 5.28 0 8 C-0.66 8 -1.32 8 -2 8 C-2.66 6.35 -3.32 4.7 -4 3 C-1.125 0 -1.125 0 0 0 Z " fill="#C2C2C2" transform="translate(388,240)"/>
<path d="M0 0 C0 1.66666667 0 3.33333333 0 5 C-2.91517292 3.92598892 -4.77810176 3.22189824 -7 1 C-4.53721199 -0.231394 -2.7204945 -0.07159196 0 0 Z " fill="#1F1F1F" transform="translate(456,227)"/>
<path d="M0 0 C0 3 0 3 -1.25 4.75 C-3 6 -3 6 -5.1875 5.6875 C-5.785625 5.460625 -6.38375 5.23375 -7 5 C-2.25 1.125 -2.25 1.125 0 0 Z " fill="#D9D9D9" transform="translate(545,199)"/>
<path d="M0 0 C2.64 0.66 5.28 1.32 8 2 C7.67 2.66 7.34 3.32 7 4 C6.34 3.67 5.68 3.34 5 3 C4.67 3.66 4.34 4.32 4 5 C3.01 5.495 3.01 5.495 2 6 C1.34 4.02 0.68 2.04 0 0 Z " fill="#E6E6E6" transform="translate(721,346)"/>
<path d="M0 0 C0.99 0.66 1.98 1.32 3 2 C1.35 3.65 -0.3 5.3 -2 7 C-2.66 6.67 -3.32 6.34 -4 6 C-2.68 4.02 -1.36 2.04 0 0 Z " fill="#E6E6E4" transform="translate(388,98)"/>
<path d="M0 0 C0.33 0.99 0.66 1.98 1 3 C0.67 3.66 0.34 4.32 0 5 C-0.66 4.67 -1.32 4.34 -2 4 C-2 4.66 -2 5.32 -2 6 C-2.99 6.33 -3.98 6.66 -5 7 C-3.75023244 3.34683329 -3.32901247 2.21934164 0 0 Z " fill="#242424" transform="translate(179,360)"/>
<path d="M0 0 C0.66 0.33 1.32 0.66 2 1 C-2.39453125 5.00390625 -2.39453125 5.00390625 -4 6 C-4.99 5.67 -5.98 5.34 -7 5 C-2.25 1.125 -2.25 1.125 0 0 Z " fill="#DBDBDA" transform="translate(373,142)"/>
<path d="M0 0 C0.66 0.33 1.32 0.66 2 1 C1.1875 3.4375 1.1875 3.4375 0 6 C-0.99 6.33 -1.98 6.66 -3 7 C-3.33 5.35 -3.66 3.7 -4 2 C-2.125 0.9375 -2.125 0.9375 0 0 Z " fill="#E6E6E4" transform="translate(395,129)"/>
<path d="M0 0 C2.52259061 1.97420135 2.9929808 2.96745642 3.6875 6.1875 C3.790625 7.115625 3.89375 8.04375 4 9 C3.34 8.01 2.68 7.02 2 6 C1.01 5.34 0.02 4.68 -1 4 C-0.67 2.68 -0.34 1.36 0 0 Z " fill="#DCDCDC" transform="translate(321,355)"/>
</svg>
